<svg width="35" height="23" viewBox="0 0 35 23" fill="none" xmlns="http://www.w3.org/2000/svg">
<path d="M5 14.375C3.75 13.9583 2.75 13.25 2 12.25C1.25 11.1667 0.833333 10 0.75 8.75C0.75 7.5 1.08333 6.29166 1.75 5.125C2.5 3.875 3.625 2.83333 5.125 2C7.54167 0.666664 9.625 0.333331 11.375 0.999997C13.2083 1.66666 14.5417 2.66666 15.375 4C15.7917 4.66666 16.0833 5.58333 16.25 6.75C16.5 7.83333 16.5833 9.04166 16.5 10.375C16.5 11.625 16.375 12.875 16.125 14.125C15.875 15.375 15.5 16.4167 15 17.25C14.5833 17.9167 14.0833 18.5833 13.5 19.25C13 19.8333 12.375 20.4167 11.625 21C10.9583 21.5833 10.1667 22.125 9.25 22.625L4.75 22.25C5.33333 21.5833 5.875 21 6.375 20.5C6.875 19.9167 7.29167 19.4167 7.625 19C7.95833 18.5833 8.29167 18.2083 8.625 17.875C9.125 17.2917 9.54167 16.7083 9.875 16.125C10.2083 15.625 10.5 15.125 10.75 14.625C11 14.0417 11.0417 13.4583 10.875 12.875C10.2083 13.5417 9.54167 14 8.875 14.25C8.20833 14.5 7.58333 14.625 7 14.625C6.33333 14.7083 5.66667 14.625 5 14.375ZM22.25 13.625C21.0833 13.0417 20.2083 12.2083 19.625 11.125C19.125 9.95833 18.9583 8.75 19.125 7.5C19.2917 6.25 19.7917 5.08333 20.625 4C21.4583 2.91666 22.7083 2.08333 24.375 1.5C26.9583 0.583331 29.0833 0.624997 30.75 1.625C32.4167 2.625 33.5833 3.83333 34.25 5.25C34.5 6 34.625 6.95833 34.625 8.125C34.625 9.29166 34.5 10.5 34.25 11.75C34 13 33.625 14.2083 33.125 15.375C32.7083 16.5417 32.2083 17.5 31.625 18.25C31.125 18.8333 30.5417 19.375 29.875 19.875C29.2917 20.2917 28.5833 20.75 27.75 21.25C27 21.75 26.125 22.1667 25.125 22.5L20.75 21.5C21.4167 20.9167 22 20.4167 22.5 20C23.0833 19.5 23.5833 19.0833 24 18.75C24.4167 18.4167 24.8333 18.125 25.25 17.875C25.8333 17.375 26.3333 16.875 26.75 16.375C27.1667 15.9583 27.5 15.5 27.75 15C28.0833 14.4167 28.25 13.7917 28.25 13.125C27.5833 13.7083 26.875 14.0833 26.125 14.25C25.4583 14.3333 24.8333 14.3333 24.25 14.25C23.5833 14.1667 22.9167 13.9583 22.25 13.625Z" fill="#333333"/>
</svg>
